<svg xmlns="http://www.w3.org/2000/svg" xmlns:xlink="http://www.w3.org/1999/xlink" width="500" zoomAndPan="magnify" viewBox="0 0 375 374.999991" height="500" preserveAspectRatio="xMidYMid meet" version="1.0"><defs><g/><clipPath id="a1cb540384"><path d="M 327.503906 127.597656 L 347.753906 127.597656 L 347.753906 147.847656 L 327.503906 147.847656 Z M 327.503906 127.597656 " clip-rule="nonzero"/></clipPath></defs><g clip-path="url(#a1cb540384)"><path fill="#000000" d="M 337.628906 128.789062 C 332.703125 128.789062 328.691406 132.796875 328.691406 137.722656 C 328.691406 142.648438 332.703125 146.660156 337.628906 146.660156 C 342.554688 146.660156 346.5625 142.648438 346.5625 137.722656 C 346.5625 132.796875 342.554688 128.789062 337.628906 128.789062 Z M 337.628906 147.847656 C 336.261719 147.847656 334.933594 147.582031 333.6875 147.054688 C 332.480469 146.542969 331.398438 145.8125 330.46875 144.882812 C 329.539062 143.953125 328.808594 142.871094 328.296875 141.664062 C 327.769531 140.417969 327.503906 139.089844 327.503906 137.722656 C 327.503906 136.355469 327.769531 135.03125 328.296875 133.78125 C 328.808594 132.578125 329.539062 131.492188 330.46875 130.5625 C 331.398438 129.632812 332.480469 128.902344 333.6875 128.394531 C 334.933594 127.867188 336.261719 127.597656 337.628906 127.597656 C 338.996094 127.597656 340.320312 127.867188 341.570312 128.394531 C 342.777344 128.902344 343.859375 129.632812 344.789062 130.5625 C 345.71875 131.492188 346.449219 132.578125 346.957031 133.78125 C 347.484375 135.03125 347.753906 136.355469 347.753906 137.722656 C 347.753906 139.089844 347.484375 140.417969 346.957031 141.664062 C 346.449219 142.871094 345.71875 143.953125 344.789062 144.882812 C 343.859375 145.8125 342.777344 146.542969 341.570312 147.054688 C 340.320312 147.582031 338.996094 147.847656 337.628906 147.847656 " fill-opacity="1" fill-rule="nonzero"/></g><path fill="#000000" d="M 330.84375 135.570312 L 332.960938 135.570312 L 332.960938 141.121094 L 334.402344 141.121094 L 334.402344 135.570312 L 336.515625 135.570312 L 336.515625 134.324219 L 330.84375 134.324219 L 330.84375 135.570312 " fill-opacity="1" fill-rule="nonzero"/><path fill="#000000" d="M 342.277344 134.324219 L 341.117188 137.539062 C 340.953125 138 340.804688 138.441406 340.679688 138.855469 C 340.542969 138.390625 340.398438 137.941406 340.246094 137.527344 L 339.085938 134.324219 L 337.203125 134.324219 L 337.203125 141.121094 L 338.644531 141.121094 L 338.644531 137.675781 C 338.644531 137.382812 338.640625 137.078125 338.628906 136.757812 C 338.691406 136.953125 338.757812 137.148438 338.828125 137.339844 L 340.214844 141.121094 L 341.15625 141.121094 L 342.542969 137.339844 C 342.613281 137.148438 342.679688 136.949219 342.746094 136.753906 C 342.734375 137.089844 342.726562 137.398438 342.726562 137.679688 L 342.726562 141.121094 L 344.167969 141.121094 L 344.167969 134.324219 L 342.277344 134.324219 " fill-opacity="1" fill-rule="nonzero"/><g fill="#ff1616" fill-opacity="1"><g transform="translate(15.069788, 129.480541)"><g><path d="M 0.605469 0 L 8.3125 0 L 8.3125 -1.105469 L 7.683594 -1.105469 C 6.125 -1.105469 6.066406 -1.910156 6.066406 -2.769531 L 6.066406 -7.089844 L 7.894531 -7.089844 C 11.46875 -7.089844 14.296875 -8.148438 14.296875 -11.46875 C 14.296875 -15.238281 10.675781 -15.738281 6.984375 -15.738281 L 0.523438 -15.738281 L 0.523438 -14.667969 L 1.164062 -14.667969 C 2.710938 -14.667969 2.769531 -13.867188 2.769531 -13.003906 L 2.769531 -2.769531 C 2.769531 -1.628906 2.527344 -1.105469 1.257812 -1.105469 L 0.605469 -1.105469 Z M 6.066406 -8.289062 L 6.066406 -14.679688 L 7.636719 -14.679688 C 9.347656 -14.679688 10.734375 -13.933594 10.734375 -11.410156 C 10.734375 -8.71875 9.058594 -8.289062 7.601562 -8.289062 Z M 6.066406 -8.289062 "/></g></g></g><g fill="#ff1616" fill-opacity="1"><g transform="translate(29.687921, 129.480541)"><g><path d="M 3.433594 0.234375 C 4.820312 0.234375 6.113281 -0.429688 7.277344 -1.546875 C 7.695312 -0.394531 8.464844 0.222656 9.789062 0.222656 C 11.292969 0.222656 12.398438 -0.546875 12.457031 -2.292969 L 11.59375 -2.292969 C 11.515625 -1.511719 11.222656 -1.222656 10.851562 -1.222656 C 10.246094 -1.222656 10.117188 -1.875 10.128906 -2.6875 L 10.128906 -7.253906 C 10.140625 -9.359375 9.476562 -10.640625 5.984375 -10.640625 C 2.527344 -10.640625 0.964844 -9.277344 0.886719 -7.976562 C 0.886719 -7.402344 1.234375 -6.867188 2.039062 -6.855469 C 2.886719 -6.84375 3.191406 -7.371094 3.304688 -8.007812 C 3.457031 -8.589844 3.714844 -9.523438 5.285156 -9.523438 C 6.753906 -9.523438 7.089844 -9.058594 7.089844 -6.996094 L 4.25 -5.632812 C 2.269531 -4.679688 0.816406 -3.75 0.816406 -2.0625 C 0.816406 -1.058594 1.269531 0.234375 3.433594 0.234375 Z M 4.878906 -1.222656 C 4.132812 -1.222656 3.703125 -1.816406 3.703125 -2.65625 C 3.703125 -3.328125 4.003906 -3.898438 4.796875 -4.390625 L 7.101562 -5.820312 L 7.113281 -2.757812 C 6.332031 -1.675781 5.460938 -1.222656 4.878906 -1.222656 Z M 4.878906 -1.222656 "/></g></g></g><g fill="#ff1616" fill-opacity="1"><g transform="translate(42.071435, 129.480541)"><g><path d="M 4.050781 -13.296875 C 4.984375 -13.296875 5.84375 -14.003906 5.84375 -15.132812 C 5.84375 -16.125 5.050781 -16.960938 4.050781 -16.960938 C 3.085938 -16.960938 2.269531 -16.125 2.269531 -15.132812 C 2.269531 -14.285156 2.921875 -13.296875 4.050781 -13.296875 Z M 0.640625 0 L 7.183594 0 L 7.183594 -1.105469 L 6.601562 -1.105469 C 5.644531 -1.105469 5.53125 -1.699219 5.53125 -2.527344 L 5.53125 -10.675781 L 0.605469 -9.757812 L 0.640625 -8.671875 L 1.304688 -8.777344 C 2.339844 -8.871094 2.503906 -8.417969 2.503906 -7.382812 L 2.503906 -2.527344 C 2.503906 -1.476562 2.316406 -1.105469 1.292969 -1.105469 L 0.640625 -1.105469 Z M 0.640625 0 "/></g></g></g><g fill="#ff1616" fill-opacity="1"><g transform="translate(49.601635, 129.480541)"><g><path d="M 0.699219 0 L 6.855469 0 L 6.855469 -1.105469 L 6.285156 -1.105469 C 5.613281 -1.105469 5.425781 -1.816406 5.425781 -2.527344 L 5.425781 -6.460938 C 5.996094 -7.636719 6.890625 -8.964844 7.976562 -8.964844 C 9.09375 -8.964844 9.441406 -8.066406 9.441406 -6.867188 L 9.441406 -2.539062 C 9.441406 -1.699219 9.253906 -1.105469 8.511719 -1.105469 L 7.953125 -1.105469 L 7.953125 0 L 14.121094 0 L 14.121094 -1.105469 L 13.5625 -1.105469 C 12.757812 -1.105469 12.457031 -1.605469 12.457031 -2.527344 L 12.457031 -6.925781 C 12.457031 -9.453125 11.117188 -10.640625 9.105469 -10.640625 C 7.648438 -10.640625 6.34375 -9.582031 5.425781 -8.242188 L 5.425781 -10.546875 L 0.664062 -9.582031 L 0.699219 -8.488281 L 1.316406 -8.589844 C 2.292969 -8.683594 2.386719 -8.03125 2.386719 -7.21875 L 2.386719 -2.527344 C 2.386719 -1.664062 2.292969 -1.105469 1.234375 -1.105469 L 0.699219 -1.105469 Z M 0.699219 0 "/></g></g></g><g fill="#ff1616" fill-opacity="1"><g transform="translate(63.882247, 129.480541)"><g/></g></g><g fill="#ff1616" fill-opacity="1"><g transform="translate(69.655013, 129.480541)"><g><path d="M 0.699219 0 L 7.195312 0 L 7.195312 -1.105469 L 6.695312 -1.105469 C 5.589844 -1.105469 5.425781 -1.535156 5.425781 -2.527344 L 5.425781 -4.320312 C 5.425781 -5.796875 5.761719 -8.648438 7.425781 -8.648438 C 7.976562 -8.648438 8.324219 -8.3125 8.523438 -7.996094 C 8.824219 -7.53125 9.117188 -7.3125 9.605469 -7.324219 C 10.535156 -7.335938 10.851562 -8.160156 10.816406 -8.753906 C 10.722656 -9.570312 10.1875 -10.640625 8.789062 -10.640625 C 7.042969 -10.640625 5.996094 -9.277344 5.296875 -7.8125 L 5.019531 -10.675781 L 0.640625 -9.652344 L 0.675781 -8.558594 L 1.410156 -8.671875 C 2.257812 -8.742188 2.386719 -8.160156 2.386719 -7.277344 L 2.386719 -2.527344 C 2.386719 -1.699219 2.316406 -1.105469 1.363281 -1.105469 L 0.699219 -1.105469 Z M 0.699219 0 "/></g></g></g><g fill="#ff1616" fill-opacity="1"><g transform="translate(80.339285, 129.480541)"><g><path d="M 5.925781 0.371094 C 7.90625 0.371094 9.546875 -0.675781 10.429688 -2.175781 L 9.476562 -2.746094 C 8.824219 -1.605469 7.847656 -0.90625 6.742188 -0.90625 C 4.179688 -0.90625 3.796875 -3.761719 3.796875 -5.296875 L 10.78125 -5.296875 C 10.757812 -9.300781 7.894531 -10.640625 5.808594 -10.640625 C 2.992188 -10.640625 0.605469 -8.578125 0.605469 -5.179688 C 0.605469 -1.863281 2.921875 0.371094 5.925781 0.371094 Z M 3.808594 -6.34375 C 3.863281 -7.554688 4.226562 -9.5 5.832031 -9.5 C 7.402344 -9.5 7.824219 -7.589844 7.882812 -6.34375 Z M 3.808594 -6.34375 "/></g></g></g><g fill="#ff1616" fill-opacity="1"><g transform="translate(91.628766, 129.480541)"><g><path d="M 0.28125 0 L 6.554688 0 L 6.554688 -1.105469 L 5.855469 -1.105469 C 5.144531 -1.105469 5.039062 -1.851562 5.039062 -2.527344 L 5.039062 -16.183594 L 0.246094 -15.296875 L 0.28125 -14.203125 L 0.886719 -14.320312 C 1.886719 -14.402344 2.015625 -13.808594 2.015625 -12.921875 L 2.015625 -2.527344 C 2.015625 -1.628906 1.921875 -1.105469 0.90625 -1.105469 L 0.28125 -1.105469 Z M 0.28125 0 "/></g></g></g><g fill="#ff1616" fill-opacity="1"><g transform="translate(98.623589, 129.480541)"><g><path d="M 4.050781 -13.296875 C 4.984375 -13.296875 5.84375 -14.003906 5.84375 -15.132812 C 5.84375 -16.125 5.050781 -16.960938 4.050781 -16.960938 C 3.085938 -16.960938 2.269531 -16.125 2.269531 -15.132812 C 2.269531 -14.285156 2.921875 -13.296875 4.050781 -13.296875 Z M 0.640625 0 L 7.183594 0 L 7.183594 -1.105469 L 6.601562 -1.105469 C 5.644531 -1.105469 5.53125 -1.699219 5.53125 -2.527344 L 5.53125 -10.675781 L 0.605469 -9.757812 L 0.640625 -8.671875 L 1.304688 -8.777344 C 2.339844 -8.871094 2.503906 -8.417969 2.503906 -7.382812 L 2.503906 -2.527344 C 2.503906 -1.476562 2.316406 -1.105469 1.292969 -1.105469 L 0.640625 -1.105469 Z M 0.640625 0 "/></g></g></g><g fill="#ff1616" fill-opacity="1"><g transform="translate(106.153789, 129.480541)"><g><path d="M 5.925781 0.371094 C 7.90625 0.371094 9.546875 -0.675781 10.429688 -2.175781 L 9.476562 -2.746094 C 8.824219 -1.605469 7.847656 -0.90625 6.742188 -0.90625 C 4.179688 -0.90625 3.796875 -3.761719 3.796875 -5.296875 L 10.78125 -5.296875 C 10.757812 -9.300781 7.894531 -10.640625 5.808594 -10.640625 C 2.992188 -10.640625 0.605469 -8.578125 0.605469 -5.179688 C 0.605469 -1.863281 2.921875 0.371094 5.925781 0.371094 Z M 3.808594 -6.34375 C 3.863281 -7.554688 4.226562 -9.5 5.832031 -9.5 C 7.402344 -9.5 7.824219 -7.589844 7.882812 -6.34375 Z M 3.808594 -6.34375 "/></g></g></g><g fill="#ff1616" fill-opacity="1"><g transform="translate(117.443271, 129.480541)"><g><path d="M 0.535156 0 L 8.148438 0 L 8.148438 -1.105469 L 6.972656 -1.105469 C 5.726562 -1.105469 5.644531 -1.699219 5.644531 -2.527344 L 5.644531 -9.171875 L 8.148438 -9.171875 L 8.148438 -10.28125 L 5.644531 -10.28125 L 5.644531 -12.199219 C 5.644531 -13.84375 6.019531 -15.019531 7.03125 -15.019531 C 7.859375 -15.019531 8.171875 -14.320312 8.3125 -13.515625 C 8.429688 -12.722656 9.046875 -12.175781 9.746094 -12.1875 C 10.5 -12.1875 11.128906 -12.851562 11.117188 -13.644531 C 11.046875 -15.507812 9.164062 -16.160156 7.554688 -16.160156 C 4.984375 -16.160156 2.632812 -14.796875 2.632812 -11.722656 L 2.632812 -10.28125 L 0.535156 -10.28125 L 0.535156 -9.171875 L 2.632812 -9.171875 L 2.632812 -2.527344 C 2.632812 -1.664062 2.539062 -1.105469 1.304688 -1.105469 L 0.535156 -1.105469 Z M 0.535156 0 "/></g></g></g><g fill="#ff1616" fill-opacity="1"><g transform="translate(126.067503, 129.480541)"><g/></g></g><g fill="#ff1616" fill-opacity="1"><g transform="translate(131.840269, 129.480541)"><g><path d="M 14.472656 -10.28125 L 14.472656 -9.171875 L 14.925781 -9.171875 C 16.136719 -9.171875 16.007812 -8.648438 15.578125 -7.414062 L 13.945312 -2.851562 L 11.023438 -10.347656 L 9.3125 -10.347656 L 6.402344 -2.886719 L 4.5625 -7.917969 C 4.226562 -8.847656 4.296875 -9.171875 5.203125 -9.171875 L 5.785156 -9.171875 L 5.785156 -10.28125 L -0.246094 -10.28125 L -0.246094 -9.171875 L 0.246094 -9.171875 C 0.839844 -9.171875 1.105469 -8.859375 1.523438 -7.789062 L 4.539062 0.222656 L 6.332031 0.222656 L 9.195312 -7.277344 L 12.128906 0.222656 L 13.898438 0.222656 L 16.902344 -7.765625 C 17.195312 -8.558594 17.496094 -9.171875 18.148438 -9.171875 L 18.546875 -9.171875 L 18.546875 -10.28125 Z M 14.472656 -10.28125 "/></g></g></g><g fill="#ff1616" fill-opacity="1"><g transform="translate(150.136212, 129.480541)"><g><path d="M 4.050781 -13.296875 C 4.984375 -13.296875 5.84375 -14.003906 5.84375 -15.132812 C 5.84375 -16.125 5.050781 -16.960938 4.050781 -16.960938 C 3.085938 -16.960938 2.269531 -16.125 2.269531 -15.132812 C 2.269531 -14.285156 2.921875 -13.296875 4.050781 -13.296875 Z M 0.640625 0 L 7.183594 0 L 7.183594 -1.105469 L 6.601562 -1.105469 C 5.644531 -1.105469 5.53125 -1.699219 5.53125 -2.527344 L 5.53125 -10.675781 L 0.605469 -9.757812 L 0.640625 -8.671875 L 1.304688 -8.777344 C 2.339844 -8.871094 2.503906 -8.417969 2.503906 -7.382812 L 2.503906 -2.527344 C 2.503906 -1.476562 2.316406 -1.105469 1.292969 -1.105469 L 0.640625 -1.105469 Z M 0.640625 0 "/></g></g></g><g fill="#ff1616" fill-opacity="1"><g transform="translate(157.666412, 129.480541)"><g><path d="M 5.179688 0.371094 C 6.261719 0.371094 7.976562 -0.0585938 8.648438 -1.78125 L 7.695312 -2.152344 C 7.3125 -1.339844 6.777344 -1.035156 6.214844 -1.035156 C 5.238281 -1.035156 4.949219 -1.851562 4.949219 -3.574219 L 4.949219 -9.171875 L 8.125 -9.171875 L 8.125 -10.28125 L 4.949219 -10.28125 L 4.949219 -14.0625 L 3.886719 -14.0625 L 3.886719 -13.050781 C 3.886719 -11.375 2.65625 -10.28125 1.023438 -10.28125 L 0.234375 -10.28125 L 0.234375 -9.171875 L 1.933594 -9.171875 L 1.933594 -3.109375 C 1.933594 -0.628906 3.269531 0.371094 5.179688 0.371094 Z M 5.179688 0.371094 "/></g></g></g><g fill="#ff1616" fill-opacity="1"><g transform="translate(166.511779, 129.480541)"><g><path d="M 0.3125 0 L 6.484375 0 L 6.484375 -1.105469 L 5.914062 -1.105469 C 5.238281 -1.105469 5.039062 -1.816406 5.039062 -2.527344 L 5.039062 -6.460938 C 5.632812 -7.636719 6.519531 -8.964844 7.613281 -8.964844 C 8.71875 -8.964844 9.070312 -8.066406 9.070312 -6.867188 L 9.070312 -2.539062 C 9.070312 -1.699219 8.894531 -1.105469 8.125 -1.105469 L 7.578125 -1.105469 L 7.578125 0 L 13.738281 0 L 13.738281 -1.105469 L 13.191406 -1.105469 C 12.375 -1.105469 12.085938 -1.605469 12.085938 -2.527344 L 12.085938 -6.925781 C 12.085938 -9.453125 10.746094 -10.640625 8.71875 -10.640625 C 7.277344 -10.640625 5.972656 -9.59375 5.039062 -8.242188 L 5.039062 -16.183594 L 0.292969 -15.214844 L 0.3125 -14.132812 L 0.941406 -14.238281 C 1.898438 -14.332031 2.015625 -13.679688 2.015625 -12.863281 L 2.015625 -2.527344 C 2.015625 -1.664062 1.921875 -1.105469 0.851562 -1.105469 L 0.3125 -1.105469 Z M 0.3125 0 "/></g></g></g><g fill="#ff1616" fill-opacity="1"><g transform="translate(180.419955, 129.480541)"><g><path d="M 3.46875 0.382812 C 4.46875 0.382812 5.296875 -0.429688 5.296875 -1.476562 C 5.296875 -2.503906 4.46875 -3.316406 3.46875 -3.316406 C 2.46875 -3.316406 1.652344 -2.503906 1.652344 -1.476562 C 1.652344 -0.429688 2.492188 0.382812 3.46875 0.382812 Z M 3.46875 0.382812 "/></g></g></g><g fill="#ff1616" fill-opacity="1"><g transform="translate(187.368223, 129.480541)"><g><path d="M 3.46875 0.382812 C 4.46875 0.382812 5.296875 -0.429688 5.296875 -1.476562 C 5.296875 -2.503906 4.46875 -3.316406 3.46875 -3.316406 C 2.46875 -3.316406 1.652344 -2.503906 1.652344 -1.476562 C 1.652344 -0.429688 2.492188 0.382812 3.46875 0.382812 Z M 3.46875 0.382812 "/></g></g></g><g fill="#ff1616" fill-opacity="1"><g transform="translate(194.316491, 129.480541)"><g><path d="M 3.46875 0.382812 C 4.46875 0.382812 5.296875 -0.429688 5.296875 -1.476562 C 5.296875 -2.503906 4.46875 -3.316406 3.46875 -3.316406 C 2.46875 -3.316406 1.652344 -2.503906 1.652344 -1.476562 C 1.652344 -0.429688 2.492188 0.382812 3.46875 0.382812 Z M 3.46875 0.382812 "/></g></g></g><g fill="#ff1616" fill-opacity="1"><g transform="translate(201.25728, 129.480541)"><g/></g></g><g fill="#016d94" fill-opacity="1"><g transform="translate(61.558914, 192.47344)"><g><path d="M 36.066406 -13.847656 L 34.449219 -7.40625 C 33.515625 -4.480469 32.332031 -3.207031 27.199219 -3.207031 L 20.039062 -3.207031 C 16.304688 -3.207031 16.152344 -5.289062 16.152344 -8.277344 L 16.152344 -20.382812 L 22.53125 -20.382812 C 24.644531 -20.382812 26.480469 -20.039062 26.480469 -17.238281 L 26.480469 -14.71875 L 29.46875 -14.71875 L 29.46875 -29.003906 L 26.480469 -29.003906 L 26.480469 -26.234375 C 26.480469 -23.898438 24.398438 -23.589844 22.4375 -23.589844 L 16.152344 -23.589844 L 16.152344 -38.867188 L 26.980469 -38.867188 C 29.875 -38.867188 31.523438 -38.617188 32.863281 -35.132812 L 33.890625 -31.148438 L 36.8125 -31.179688 L 36.222656 -42.074219 L 1.554688 -42.074219 L 1.554688 -39.117188 L 3.175781 -39.117188 C 6.816406 -39.117188 7.375 -37.621094 7.375 -34.667969 L 7.375 -7.40625 C 7.375 -4.792969 6.847656 -2.957031 3.765625 -2.957031 L 1.554688 -2.957031 L 1.554688 0 L 38.527344 0 L 38.992188 -13.816406 Z M 36.066406 -13.847656 "/></g></g></g><g fill="#016d94" fill-opacity="1"><g transform="translate(103.317062, 192.47344)"><g><path d="M 10.488281 0 L 31.835938 0 L 31.835938 -2.957031 L 29.84375 -2.957031 C 25.609375 -2.957031 25.546875 -5.105469 25.546875 -7.40625 L 25.546875 -38.867188 L 31.179688 -38.867188 C 34.480469 -38.867188 36.6875 -38.464844 38.089844 -32.644531 L 38.339844 -30.308594 L 41.296875 -30.339844 L 41.140625 -42.074219 L 1.121094 -42.074219 L 0.964844 -30.339844 L 3.921875 -30.308594 L 4.078125 -32.550781 C 4.667969 -38.710938 8.402344 -38.867188 10.953125 -38.867188 L 16.773438 -38.867188 L 16.773438 -7.40625 C 16.773438 -5.042969 16.492188 -2.957031 12.417969 -2.957031 L 10.488281 -2.957031 Z M 10.488281 0 "/></g></g></g><g fill="#016d94" fill-opacity="1"><g transform="translate(145.573072, 192.47344)"><g><path d="M 24.023438 0.839844 C 38.867188 0.839844 45.933594 -10.175781 45.933594 -20.941406 C 45.933594 -30.996094 39.582031 -42.914062 23.804688 -42.914062 C 9.054688 -42.914062 2.023438 -31.398438 2.023438 -21.191406 C 2.023438 -8.589844 10.332031 0.839844 24.023438 0.839844 Z M 23.804688 -2.613281 C 14.347656 -2.613281 12.261719 -13.257812 12.261719 -21.441406 C 12.261719 -31.585938 15.433594 -39.460938 23.898438 -39.460938 C 30.964844 -39.460938 35.601562 -34.261719 35.601562 -21.003906 C 35.601562 -8.246094 31.523438 -2.613281 23.804688 -2.613281 Z M 23.804688 -2.613281 "/></g></g></g><g fill="#016d94" fill-opacity="1"><g transform="translate(193.554491, 192.47344)"><g><path d="M 1.058594 0 L 18.640625 0 L 18.640625 -2.957031 L 16.152344 -2.957031 C 12.789062 -2.957031 12.105469 -5.042969 14.5 -7.902344 L 22.625 -17.300781 L 29.96875 -8.027344 C 32.519531 -4.574219 31.898438 -2.957031 28.289062 -2.957031 L 25.765625 -2.957031 L 25.765625 0 L 49.324219 0 L 49.324219 -2.957031 L 47.550781 -2.957031 C 44.21875 -2.957031 42.414062 -5.539062 39.644531 -9.273438 L 28.628906 -23.621094 L 37.375 -33.640625 C 40.082031 -36.78125 41.699219 -39.117188 45.214844 -39.117188 L 46.957031 -39.117188 L 46.957031 -42.074219 L 30.652344 -42.074219 L 30.652344 -39.117188 L 32.863281 -39.117188 C 35.753906 -39.117188 36.378906 -37.40625 33.917969 -34.574219 L 26.574219 -26.140625 L 19.605469 -34.976562 C 17.707031 -37.59375 18.050781 -39.117188 20.539062 -39.117188 L 22.71875 -39.117188 L 22.71875 -42.074219 L 0.839844 -42.074219 L 0.839844 -39.117188 L 2.863281 -39.117188 C 5.757812 -39.117188 6.816406 -37.746094 10.113281 -33.328125 L 20.632812 -19.917969 L 9.957031 -7.75 C 7.59375 -4.980469 5.351562 -2.957031 2.457031 -2.957031 L 1.058594 -2.957031 Z M 1.058594 0 "/></g></g></g><g fill="#016d94" fill-opacity="1"><g transform="translate(243.216192, 192.47344)"><g><path d="M 4.046875 -9.273438 L 22.46875 -9.273438 L 22.46875 -16.089844 L 4.046875 -16.089844 Z M 4.046875 -9.273438 "/></g></g></g><g fill="#016d94" fill-opacity="1"><g transform="translate(269.727326, 192.47344)"><g><path d="M 11.761719 0.839844 C 20.789062 0.839844 29.65625 -6.941406 29.65625 -24.460938 C 29.65625 -37.933594 22.125 -42.789062 15.558594 -42.789062 C 9.179688 -42.789062 2.242188 -38.027344 2.242188 -28.566406 C 2.242188 -18.296875 9.648438 -15.25 14.53125 -15.25 C 17.863281 -15.25 19.917969 -16.679688 21.128906 -18.515625 C 20.851562 -12.261719 19.699219 -2.363281 13.753906 -2.363281 C 11.453125 -2.363281 10.207031 -3.609375 9.335938 -4.824219 C 8.058594 -6.660156 7.21875 -7.1875 6.007812 -7.125 C 4.261719 -7.0625 3.175781 -5.445312 3.265625 -4.046875 C 3.765625 -1.277344 7 0.839844 11.761719 0.839844 Z M 16.152344 -18.296875 C 11.699219 -18.296875 10.613281 -22.964844 10.613281 -29.90625 C 10.613281 -35.785156 11.761719 -39.738281 15.652344 -39.738281 C 19.605469 -39.738281 21.285156 -35.878906 21.535156 -28.753906 C 21.285156 -23.246094 20.601562 -18.296875 16.152344 -18.296875 Z M 16.152344 -18.296875 "/></g></g></g><g fill="#016d94" fill-opacity="1"><g transform="translate(301.87052, 192.47344)"><g><path d="M 16.027344 0.839844 C 23.804688 0.839844 29.875 -5.632812 29.875 -21.035156 C 29.875 -38.027344 22.21875 -42.789062 16.027344 -42.789062 C 8.714844 -42.789062 2.304688 -36.410156 2.304688 -21.316406 C 2.304688 -2.210938 11.484375 0.839844 16.027344 0.839844 Z M 16.246094 -2.210938 C 11.761719 -2.210938 10.644531 -8.496094 10.644531 -21.222656 C 10.644531 -31.929688 11.578125 -39.738281 15.996094 -39.738281 C 20.382812 -39.738281 21.503906 -33.949219 21.503906 -19.949219 C 21.503906 -7.53125 20.289062 -2.210938 16.246094 -2.210938 Z M 16.246094 -2.210938 "/></g></g></g><g fill="#000000" fill-opacity="1"><g transform="translate(62.879096, 219.13419)"><g><path d="M 13.175781 -4.964844 L 12.652344 -2.203125 C 12.40625 -1.335938 12.019531 -0.945312 10.59375 -0.945312 L 6.34375 -0.945312 C 5.265625 -0.945312 5.152344 -1.546875 5.152344 -2.4375 L 5.152344 -7.402344 L 8.480469 -7.402344 C 9.136719 -7.402344 9.683594 -7.246094 9.683594 -6.398438 L 9.683594 -5.265625 L 10.582031 -5.265625 L 10.582031 -10.382812 L 9.683594 -10.382812 L 9.683594 -9.226562 C 9.683594 -8.503906 9.082031 -8.347656 8.457031 -8.347656 L 5.152344 -8.347656 L 5.152344 -14.101562 L 10.40625 -14.101562 C 11.273438 -14.101562 11.761719 -13.964844 12.109375 -12.953125 L 12.417969 -11.140625 L 13.289062 -11.152344 L 13.066406 -15.046875 L 0.613281 -15.046875 L 0.613281 -14.15625 L 1.511719 -14.15625 C 2.570312 -14.15625 2.78125 -13.710938 2.78125 -12.832031 L 2.78125 -2.214844 C 2.78125 -1.425781 2.582031 -0.878906 1.667969 -0.878906 L 0.613281 -0.878906 L 0.613281 0 L 13.789062 0 L 14.042969 -4.941406 Z M 13.175781 -4.964844 "/></g></g></g><g fill="#000000" fill-opacity="1"><g transform="translate(78.068045, 219.13419)"><g><path d="M 5.265625 0.3125 C 6.34375 0.3125 7.769531 -0.109375 8.367188 -1.546875 L 7.621094 -1.871094 C 7.234375 -1.089844 6.65625 -0.769531 5.964844 -0.769531 C 4.796875 -0.769531 4.316406 -1.625 4.316406 -3.351562 L 4.316406 -8.734375 L 7.691406 -8.734375 L 7.691406 -9.625 L 4.316406 -9.625 L 4.316406 -13.066406 L 3.472656 -13.066406 L 3.472656 -11.707031 C 3.472656 -10.4375 2.558594 -9.625 1.335938 -9.625 L 0.199219 -9.625 L 0.199219 -8.734375 L 2.136719 -8.734375 L 2.136719 -3.027344 C 2.136719 -0.722656 3.394531 0.3125 5.265625 0.3125 Z M 5.265625 0.3125 "/></g></g></g><g fill="#000000" fill-opacity="1"><g transform="translate(86.68068, 219.13419)"><g><path d="M 5.808594 0.3125 C 7.824219 0.3125 10.882812 -0.902344 10.882812 -4.828125 C 10.882812 -8.679688 7.800781 -9.9375 5.796875 -9.9375 C 3.59375 -9.9375 0.746094 -8.535156 0.746094 -4.828125 C 0.746094 -0.480469 4.339844 0.3125 5.808594 0.3125 Z M 5.832031 -0.589844 C 4.296875 -0.589844 3.058594 -2.191406 3.058594 -4.898438 C 3.058594 -7.179688 4.027344 -9.023438 5.808594 -9.023438 C 7.601562 -9.023438 8.570312 -7.222656 8.570312 -4.820312 C 8.570312 -2.171875 7.3125 -0.589844 5.832031 -0.589844 Z M 5.832031 -0.589844 "/></g></g></g><g fill="#000000" fill-opacity="1"><g transform="translate(98.308849, 219.13419)"><g><path d="M 0.691406 0 L 6.421875 0 L 6.421875 -0.878906 L 5.730469 -0.878906 C 4.851562 -0.878906 4.675781 -1.246094 4.675781 -2.046875 L 4.675781 -4.171875 C 4.675781 -5.910156 5.308594 -8.445312 7.078125 -8.445312 C 7.679688 -8.445312 8.078125 -8.125 8.3125 -7.746094 C 8.558594 -7.378906 8.78125 -7.210938 9.160156 -7.222656 C 9.828125 -7.246094 10.050781 -7.855469 9.992188 -8.3125 C 9.816406 -9.09375 9.238281 -9.9375 8.011719 -9.9375 C 6.296875 -9.9375 5.273438 -8.667969 4.585938 -7.179688 L 4.394531 -9.980469 L 0.613281 -9.082031 L 0.679688 -8.210938 L 1.582031 -8.390625 C 2.292969 -8.480469 2.46875 -8.011719 2.46875 -7.277344 L 2.46875 -2.046875 C 2.46875 -1.359375 2.347656 -0.878906 1.582031 -0.878906 L 0.691406 -0.878906 Z M 0.691406 0 "/></g></g></g><g fill="#000000" fill-opacity="1"><g transform="translate(108.312413, 219.13419)"><g><path d="M 3.671875 -12.777344 C 4.40625 -12.777344 5.074219 -13.320312 5.074219 -14.210938 C 5.074219 -14.988281 4.453125 -15.648438 3.671875 -15.648438 C 2.90625 -15.648438 2.269531 -14.988281 2.269531 -14.210938 C 2.269531 -13.554688 2.78125 -12.777344 3.671875 -12.777344 Z M 0.65625 0 L 6.410156 0 L 6.410156 -0.878906 L 5.664062 -0.878906 C 4.898438 -0.878906 4.742188 -1.359375 4.742188 -2.046875 L 4.742188 -9.980469 L 0.589844 -9.160156 L 0.65625 -8.289062 L 1.511719 -8.46875 C 2.347656 -8.570312 2.546875 -8.191406 2.546875 -7.34375 L 2.546875 -2.046875 C 2.546875 -1.214844 2.347656 -0.878906 1.523438 -0.878906 L 0.65625 -0.878906 Z M 0.65625 0 "/></g></g></g><g fill="#000000" fill-opacity="1"><g transform="translate(115.100148, 219.13419)"><g><path d="M 5.753906 0.3125 C 8.191406 0.3125 9.335938 -1.035156 10.003906 -2.539062 L 9.203125 -2.90625 C 8.824219 -1.925781 7.890625 -0.722656 6.164062 -0.722656 C 4.207031 -0.722656 3.027344 -2.292969 3.027344 -5.128906 C 3.027344 -6.742188 3.773438 -9.046875 5.886719 -9.046875 C 6.988281 -9.046875 7.601562 -8.457031 7.957031 -7.710938 C 8.058594 -7.300781 8.257812 -6.644531 8.957031 -6.664062 C 9.515625 -6.675781 9.804688 -7.15625 9.757812 -7.699219 C 9.449219 -9.316406 7.554688 -9.9375 5.988281 -9.9375 C 3.050781 -9.9375 0.710938 -7.824219 0.710938 -4.707031 C 0.710938 -1.703125 2.835938 0.3125 5.753906 0.3125 Z M 5.753906 0.3125 "/></g></g></g><g fill="#000000" fill-opacity="1"><g transform="translate(125.715721, 219.13419)"><g><path d="M 5.808594 0.3125 C 7.824219 0.3125 10.882812 -0.902344 10.882812 -4.828125 C 10.882812 -8.679688 7.800781 -9.9375 5.796875 -9.9375 C 3.59375 -9.9375 0.746094 -8.535156 0.746094 -4.828125 C 0.746094 -0.480469 4.339844 0.3125 5.808594 0.3125 Z M 5.832031 -0.589844 C 4.296875 -0.589844 3.058594 -2.191406 3.058594 -4.898438 C 3.058594 -7.179688 4.027344 -9.023438 5.808594 -9.023438 C 7.601562 -9.023438 8.570312 -7.222656 8.570312 -4.820312 C 8.570312 -2.171875 7.3125 -0.589844 5.832031 -0.589844 Z M 5.832031 -0.589844 "/></g></g></g><g fill="#000000" fill-opacity="1"><g transform="translate(137.343891, 219.13419)"><g><path d="M 0.433594 0 L 4.539062 0 L 4.539062 -0.878906 L 3.851562 -0.878906 C 3.058594 -0.878906 3.195312 -1.300781 3.726562 -1.890625 L 5.785156 -3.972656 L 7.769531 -1.792969 C 8.210938 -1.246094 8.191406 -0.878906 7.410156 -0.878906 L 6.699219 -0.878906 L 6.699219 0 L 12.152344 0 L 12.152344 -0.878906 L 11.785156 -0.878906 C 11.429688 -0.878906 10.761719 -1.46875 10.027344 -2.359375 L 7.234375 -5.320312 L 9.660156 -7.734375 C 10.171875 -8.269531 10.707031 -8.734375 11.183594 -8.734375 L 11.628906 -8.734375 L 11.628906 -9.625 L 7.878906 -9.625 L 7.878906 -8.734375 L 8.3125 -8.734375 C 9.058594 -8.734375 9.035156 -8.324219 8.511719 -7.769531 L 6.710938 -5.921875 L 4.953125 -7.8125 C 4.507812 -8.367188 4.472656 -8.734375 5.164062 -8.734375 L 5.875 -8.734375 L 5.875 -9.625 L 0.390625 -9.625 L 0.390625 -8.734375 L 0.878906 -8.734375 C 1.367188 -8.734375 1.980469 -8.066406 2.335938 -7.632812 L 5.207031 -4.574219 L 2.449219 -1.792969 C 2.003906 -1.347656 1.445312 -0.878906 0.824219 -0.878906 L 0.433594 -0.878906 Z M 0.433594 0 "/></g></g></g><g fill="#000000" fill-opacity="1"><g transform="translate(149.739853, 219.13419)"><g><path d="M 3.671875 -12.777344 C 4.40625 -12.777344 5.074219 -13.320312 5.074219 -14.210938 C 5.074219 -14.988281 4.453125 -15.648438 3.671875 -15.648438 C 2.90625 -15.648438 2.269531 -14.988281 2.269531 -14.210938 C 2.269531 -13.554688 2.78125 -12.777344 3.671875 -12.777344 Z M 0.65625 0 L 6.410156 0 L 6.410156 -0.878906 L 5.664062 -0.878906 C 4.898438 -0.878906 4.742188 -1.359375 4.742188 -2.046875 L 4.742188 -9.980469 L 0.589844 -9.160156 L 0.65625 -8.289062 L 1.511719 -8.46875 C 2.347656 -8.570312 2.546875 -8.191406 2.546875 -7.34375 L 2.546875 -2.046875 C 2.546875 -1.214844 2.347656 -0.878906 1.523438 -0.878906 L 0.65625 -0.878906 Z M 0.65625 0 "/></g></g></g><g fill="#000000" fill-opacity="1"><g transform="translate(156.527589, 219.13419)"><g><path d="M 7.078125 0.265625 C 9.527344 0.265625 11.742188 -1.757812 11.742188 -4.851562 C 11.742188 -7.84375 9.625 -9.9375 7.121094 -9.9375 C 5.640625 -9.9375 4.5625 -9.269531 3.882812 -8.625 L 3.882812 -15.445312 L -0.167969 -14.644531 L -0.109375 -13.765625 L 0.734375 -13.953125 C 1.523438 -14.054688 1.691406 -13.566406 1.691406 -12.832031 L 1.691406 0.132812 L 2.414062 0.132812 L 3.503906 -1.335938 C 4.460938 -0.332031 5.730469 0.265625 7.078125 0.265625 Z M 6.488281 -0.824219 C 5.320312 -0.824219 4.417969 -1.582031 3.882812 -2.316406 L 3.882812 -7.433594 C 4.394531 -8.101562 5.320312 -8.835938 6.519531 -8.835938 C 8.402344 -8.835938 9.4375 -6.867188 9.4375 -4.820312 C 9.4375 -3.128906 8.558594 -0.824219 6.488281 -0.824219 Z M 6.488281 -0.824219 "/></g></g></g><g fill="#000000" fill-opacity="1"><g transform="translate(174.576288, 219.13419)"><g><path d="M 4.5625 0.277344 C 7.757812 0.277344 10.515625 -2.582031 10.515625 -8.769531 C 10.515625 -13.363281 8.136719 -15.289062 5.574219 -15.289062 C 3.203125 -15.289062 0.945312 -13.519531 0.945312 -10.292969 C 0.945312 -6.800781 3.304688 -5.519531 5.375 -5.519531 C 6.8125 -5.519531 7.734375 -6.210938 8.210938 -7.3125 C 8.136719 -4.472656 7.601562 -0.667969 5.0625 -0.667969 C 4.085938 -0.667969 3.449219 -1.136719 2.992188 -1.714844 C 2.636719 -2.238281 2.382812 -2.382812 2.046875 -2.335938 C 1.558594 -2.304688 1.289062 -1.847656 1.347656 -1.4375 C 1.726562 -0.421875 2.914062 0.277344 4.5625 0.277344 Z M 5.785156 -6.433594 C 3.894531 -6.433594 3.203125 -8.066406 3.203125 -10.640625 C 3.203125 -12.875 3.941406 -14.390625 5.597656 -14.390625 C 7.289062 -14.390625 8.113281 -12.964844 8.28125 -10.261719 C 8.113281 -8.101562 7.546875 -6.433594 5.785156 -6.433594 Z M 5.785156 -6.433594 "/></g></g></g><g fill="#000000" fill-opacity="1"><g transform="translate(186.171075, 219.13419)"><g><path d="M 5.796875 0.277344 C 8.570312 0.277344 10.5625 -2.179688 10.5625 -7.523438 C 10.5625 -13.265625 8.167969 -15.289062 5.796875 -15.289062 C 3.128906 -15.289062 1.046875 -12.851562 1.046875 -7.601562 C 1.046875 -1.300781 3.839844 0.277344 5.796875 0.277344 Z M 5.84375 -0.632812 C 3.996094 -0.632812 3.304688 -2.980469 3.304688 -7.566406 C 3.304688 -11.640625 3.941406 -14.390625 5.785156 -14.390625 C 7.601562 -14.390625 8.300781 -12.152344 8.300781 -7.246094 C 8.300781 -2.738281 7.578125 -0.632812 5.84375 -0.632812 Z M 5.84375 -0.632812 "/></g></g></g></svg>