<svg xmlns="http://www.w3.org/2000/svg" xmlns:xlink="http://www.w3.org/1999/xlink" width="500" zoomAndPan="magnify" viewBox="0 0 375 225" height="300" preserveAspectRatio="xMidYMid meet" version="1.0"><defs><g/><clipPath id="3a0ba5479a"><path d="M 334.898438 65.902344 L 352.148438 65.902344 L 352.148438 83.152344 L 334.898438 83.152344 Z M 334.898438 65.902344 " clip-rule="nonzero"/></clipPath></defs><g clip-path="url(#3a0ba5479a)"><path fill="#000000" d="M 343.523438 66.914062 C 339.328125 66.914062 335.914062 70.328125 335.914062 74.527344 C 335.914062 78.722656 339.328125 82.136719 343.523438 82.136719 C 347.71875 82.136719 351.136719 78.722656 351.136719 74.527344 C 351.136719 70.328125 347.71875 66.914062 343.523438 66.914062 Z M 343.523438 83.152344 C 342.359375 83.152344 341.230469 82.921875 340.167969 82.472656 C 339.140625 82.039062 338.214844 81.417969 337.425781 80.625 C 336.632812 79.832031 336.011719 78.910156 335.578125 77.882812 C 335.125 76.820312 334.898438 75.691406 334.898438 74.527344 C 334.898438 73.363281 335.125 72.230469 335.578125 71.167969 C 336.011719 70.140625 336.632812 69.21875 337.425781 68.425781 C 338.214844 67.636719 339.140625 67.011719 340.167969 66.578125 C 341.230469 66.128906 342.359375 65.902344 343.523438 65.902344 C 344.6875 65.902344 345.816406 66.128906 346.882812 66.578125 C 347.910156 67.011719 348.832031 67.636719 349.625 68.425781 C 350.414062 69.21875 351.035156 70.140625 351.472656 71.167969 C 351.921875 72.230469 352.148438 73.363281 352.148438 74.527344 C 352.148438 75.691406 351.921875 76.820312 351.472656 77.882812 C 351.035156 78.910156 350.414062 79.832031 349.625 80.625 C 348.832031 81.417969 347.910156 82.039062 346.882812 82.472656 C 345.816406 82.921875 344.6875 83.152344 343.523438 83.152344 " fill-opacity="1" fill-rule="nonzero"/></g><path fill="#000000" d="M 337.746094 72.691406 L 339.546875 72.691406 L 339.546875 77.421875 L 340.777344 77.421875 L 340.777344 72.691406 L 342.574219 72.691406 L 342.574219 71.632812 L 337.746094 71.632812 L 337.746094 72.691406 " fill-opacity="1" fill-rule="nonzero"/><path fill="#000000" d="M 347.484375 71.632812 L 346.496094 74.371094 C 346.355469 74.761719 346.230469 75.136719 346.125 75.492188 C 346.007812 75.09375 345.882812 74.710938 345.753906 74.359375 L 344.765625 71.632812 L 343.164062 71.632812 L 343.164062 77.421875 L 344.390625 77.421875 L 344.390625 74.484375 C 344.390625 74.234375 344.386719 73.976562 344.375 73.703125 C 344.429688 73.871094 344.488281 74.035156 344.546875 74.199219 L 345.726562 77.421875 L 346.53125 77.421875 L 347.710938 74.199219 C 347.769531 74.035156 347.828125 73.867188 347.882812 73.699219 C 347.871094 73.984375 347.867188 74.25 347.867188 74.488281 L 347.867188 77.421875 L 349.09375 77.421875 L 349.09375 71.632812 L 347.484375 71.632812 " fill-opacity="1" fill-rule="nonzero"/><g fill="#ff1616" fill-opacity="1"><g transform="translate(59.86383, 67.557669)"><g><path d="M 0.53125 0 L 7.316406 0 L 7.316406 -0.972656 L 6.765625 -0.972656 C 5.390625 -0.972656 5.339844 -1.679688 5.339844 -2.4375 L 5.339844 -6.242188 L 6.949219 -6.242188 C 10.09375 -6.242188 12.585938 -7.171875 12.585938 -10.09375 C 12.585938 -13.414062 9.398438 -13.855469 6.148438 -13.855469 L 0.460938 -13.855469 L 0.460938 -12.914062 L 1.023438 -12.914062 C 2.386719 -12.914062 2.4375 -12.207031 2.4375 -11.449219 L 2.4375 -2.4375 C 2.4375 -1.433594 2.222656 -0.972656 1.105469 -0.972656 L 0.53125 -0.972656 Z M 5.339844 -7.296875 L 5.339844 -12.921875 L 6.722656 -12.921875 C 8.230469 -12.921875 9.449219 -12.265625 9.449219 -10.042969 C 9.449219 -7.675781 7.972656 -7.296875 6.691406 -7.296875 Z M 5.339844 -7.296875 "/></g></g></g><g fill="#ff1616" fill-opacity="1"><g transform="translate(72.732171, 67.557669)"><g><path d="M 3.023438 0.203125 C 4.242188 0.203125 5.378906 -0.378906 6.40625 -1.363281 C 6.773438 -0.347656 7.449219 0.195312 8.617188 0.195312 C 9.941406 0.195312 10.914062 -0.480469 10.964844 -2.019531 L 10.207031 -2.019531 C 10.136719 -1.332031 9.878906 -1.074219 9.550781 -1.074219 C 9.019531 -1.074219 8.90625 -1.648438 8.917969 -2.367188 L 8.917969 -6.382812 C 8.925781 -8.238281 8.34375 -9.367188 5.269531 -9.367188 C 2.222656 -9.367188 0.851562 -8.167969 0.777344 -7.019531 C 0.777344 -6.519531 1.085938 -6.046875 1.792969 -6.035156 C 2.542969 -6.027344 2.808594 -6.488281 2.910156 -7.050781 C 3.042969 -7.5625 3.269531 -8.382812 4.652344 -8.382812 C 5.945312 -8.382812 6.242188 -7.972656 6.242188 -6.160156 L 3.742188 -4.960938 C 2 -4.121094 0.71875 -3.300781 0.71875 -1.8125 C 0.71875 -0.933594 1.117188 0.203125 3.023438 0.203125 Z M 4.292969 -1.074219 C 3.636719 -1.074219 3.257812 -1.597656 3.257812 -2.335938 C 3.257812 -2.929688 3.527344 -3.433594 4.222656 -3.863281 L 6.25 -5.125 L 6.261719 -2.429688 C 5.574219 -1.476562 4.804688 -1.074219 4.292969 -1.074219 Z M 4.292969 -1.074219 "/></g></g></g><g fill="#ff1616" fill-opacity="1"><g transform="translate(83.633377, 67.557669)"><g><path d="M 3.566406 -11.703125 C 4.386719 -11.703125 5.144531 -12.328125 5.144531 -13.324219 C 5.144531 -14.195312 4.449219 -14.933594 3.566406 -14.933594 C 2.714844 -14.933594 2 -14.195312 2 -13.324219 C 2 -12.574219 2.574219 -11.703125 3.566406 -11.703125 Z M 0.5625 0 L 6.324219 0 L 6.324219 -0.972656 L 5.8125 -0.972656 C 4.96875 -0.972656 4.867188 -1.496094 4.867188 -2.222656 L 4.867188 -9.398438 L 0.53125 -8.589844 L 0.5625 -7.636719 L 1.148438 -7.726562 C 2.058594 -7.808594 2.203125 -7.410156 2.203125 -6.496094 L 2.203125 -2.222656 C 2.203125 -1.300781 2.039062 -0.972656 1.136719 -0.972656 L 0.5625 -0.972656 Z M 0.5625 0 "/></g></g></g><g fill="#ff1616" fill-opacity="1"><g transform="translate(90.262212, 67.557669)"><g><path d="M 0.613281 0 L 6.035156 0 L 6.035156 -0.972656 L 5.535156 -0.972656 C 4.941406 -0.972656 4.777344 -1.597656 4.777344 -2.222656 L 4.777344 -5.6875 C 5.277344 -6.722656 6.066406 -7.890625 7.019531 -7.890625 C 8.003906 -7.890625 8.3125 -7.101562 8.3125 -6.046875 L 8.3125 -2.234375 C 8.3125 -1.496094 8.148438 -0.972656 7.492188 -0.972656 L 7 -0.972656 L 7 0 L 12.429688 0 L 12.429688 -0.972656 L 11.9375 -0.972656 C 11.230469 -0.972656 10.964844 -1.414062 10.964844 -2.222656 L 10.964844 -6.097656 C 10.964844 -8.320312 9.789062 -9.367188 8.015625 -9.367188 C 6.734375 -9.367188 5.585938 -8.433594 4.777344 -7.253906 L 4.777344 -9.285156 L 0.585938 -8.433594 L 0.613281 -7.472656 L 1.15625 -7.5625 C 2.019531 -7.644531 2.101562 -7.070312 2.101562 -6.355469 L 2.101562 -2.222656 C 2.101562 -1.464844 2.019531 -0.972656 1.085938 -0.972656 L 0.613281 -0.972656 Z M 0.613281 0 "/></g></g></g><g fill="#ff1616" fill-opacity="1"><g transform="translate(102.833433, 67.557669)"><g/></g></g><g fill="#ff1616" fill-opacity="1"><g transform="translate(107.915199, 67.557669)"><g><path d="M 0.613281 0 L 6.332031 0 L 6.332031 -0.972656 L 5.894531 -0.972656 C 4.917969 -0.972656 4.777344 -1.351562 4.777344 -2.222656 L 4.777344 -3.800781 C 4.777344 -5.105469 5.074219 -7.613281 6.539062 -7.613281 C 7.019531 -7.613281 7.328125 -7.316406 7.5 -7.039062 C 7.769531 -6.628906 8.023438 -6.4375 8.453125 -6.445312 C 9.273438 -6.457031 9.550781 -7.183594 9.519531 -7.707031 C 9.4375 -8.425781 8.96875 -9.367188 7.738281 -9.367188 C 6.199219 -9.367188 5.277344 -8.167969 4.664062 -6.875 L 4.417969 -9.398438 L 0.5625 -8.496094 L 0.59375 -7.53125 L 1.238281 -7.636719 C 1.988281 -7.695312 2.101562 -7.183594 2.101562 -6.40625 L 2.101562 -2.222656 C 2.101562 -1.496094 2.039062 -0.972656 1.199219 -0.972656 L 0.613281 -0.972656 Z M 0.613281 0 "/></g></g></g><g fill="#ff1616" fill-opacity="1"><g transform="translate(117.320562, 67.557669)"><g><path d="M 5.214844 0.328125 C 6.957031 0.328125 8.402344 -0.59375 9.183594 -1.917969 L 8.34375 -2.417969 C 7.769531 -1.414062 6.90625 -0.800781 5.933594 -0.800781 C 3.679688 -0.800781 3.339844 -3.308594 3.339844 -4.664062 L 9.488281 -4.664062 C 9.46875 -8.1875 6.949219 -9.367188 5.113281 -9.367188 C 2.632812 -9.367188 0.53125 -7.554688 0.53125 -4.558594 C 0.53125 -1.640625 2.574219 0.328125 5.214844 0.328125 Z M 3.351562 -5.585938 C 3.402344 -6.652344 3.71875 -8.363281 5.132812 -8.363281 C 6.519531 -8.363281 6.886719 -6.683594 6.9375 -5.585938 Z M 3.351562 -5.585938 "/></g></g></g><g fill="#ff1616" fill-opacity="1"><g transform="translate(127.258692, 67.557669)"><g><path d="M 0.246094 0 L 5.769531 0 L 5.769531 -0.972656 L 5.15625 -0.972656 C 4.53125 -0.972656 4.4375 -1.628906 4.4375 -2.222656 L 4.4375 -14.246094 L 0.214844 -13.464844 L 0.246094 -12.503906 L 0.777344 -12.605469 C 1.660156 -12.675781 1.773438 -12.15625 1.773438 -11.375 L 1.773438 -2.222656 C 1.773438 -1.433594 1.691406 -0.972656 0.800781 -0.972656 L 0.246094 -0.972656 Z M 0.246094 0 "/></g></g></g><g fill="#ff1616" fill-opacity="1"><g transform="translate(133.416234, 67.557669)"><g><path d="M 3.566406 -11.703125 C 4.386719 -11.703125 5.144531 -12.328125 5.144531 -13.324219 C 5.144531 -14.195312 4.449219 -14.933594 3.566406 -14.933594 C 2.714844 -14.933594 2 -14.195312 2 -13.324219 C 2 -12.574219 2.574219 -11.703125 3.566406 -11.703125 Z M 0.5625 0 L 6.324219 0 L 6.324219 -0.972656 L 5.8125 -0.972656 C 4.96875 -0.972656 4.867188 -1.496094 4.867188 -2.222656 L 4.867188 -9.398438 L 0.53125 -8.589844 L 0.5625 -7.636719 L 1.148438 -7.726562 C 2.058594 -7.808594 2.203125 -7.410156 2.203125 -6.496094 L 2.203125 -2.222656 C 2.203125 -1.300781 2.039062 -0.972656 1.136719 -0.972656 L 0.5625 -0.972656 Z M 0.5625 0 "/></g></g></g><g fill="#ff1616" fill-opacity="1"><g transform="translate(140.045069, 67.557669)"><g><path d="M 5.214844 0.328125 C 6.957031 0.328125 8.402344 -0.59375 9.183594 -1.917969 L 8.34375 -2.417969 C 7.769531 -1.414062 6.90625 -0.800781 5.933594 -0.800781 C 3.679688 -0.800781 3.339844 -3.308594 3.339844 -4.664062 L 9.488281 -4.664062 C 9.46875 -8.1875 6.949219 -9.367188 5.113281 -9.367188 C 2.632812 -9.367188 0.53125 -7.554688 0.53125 -4.558594 C 0.53125 -1.640625 2.574219 0.328125 5.214844 0.328125 Z M 3.351562 -5.585938 C 3.402344 -6.652344 3.71875 -8.363281 5.132812 -8.363281 C 6.519531 -8.363281 6.886719 -6.683594 6.9375 -5.585938 Z M 3.351562 -5.585938 "/></g></g></g><g fill="#ff1616" fill-opacity="1"><g transform="translate(149.983199, 67.557669)"><g><path d="M 0.472656 0 L 7.171875 0 L 7.171875 -0.972656 L 6.140625 -0.972656 C 5.042969 -0.972656 4.96875 -1.496094 4.96875 -2.222656 L 4.96875 -8.074219 L 7.171875 -8.074219 L 7.171875 -9.050781 L 4.96875 -9.050781 L 4.96875 -10.742188 C 4.96875 -12.183594 5.296875 -13.21875 6.191406 -13.21875 C 6.917969 -13.21875 7.195312 -12.605469 7.316406 -11.898438 C 7.417969 -11.203125 7.964844 -10.71875 8.578125 -10.730469 C 9.242188 -10.730469 9.796875 -11.3125 9.789062 -12.011719 C 9.726562 -13.652344 8.066406 -14.226562 6.652344 -14.226562 C 4.386719 -14.226562 2.316406 -13.027344 2.316406 -10.320312 L 2.316406 -9.050781 L 0.472656 -9.050781 L 0.472656 -8.074219 L 2.316406 -8.074219 L 2.316406 -2.222656 C 2.316406 -1.464844 2.234375 -0.972656 1.148438 -0.972656 L 0.472656 -0.972656 Z M 0.472656 0 "/></g></g></g><g fill="#ff1616" fill-opacity="1"><g transform="translate(157.57511, 67.557669)"><g/></g></g><g fill="#ff1616" fill-opacity="1"><g transform="translate(162.656875, 67.557669)"><g><path d="M 12.738281 -9.050781 L 12.738281 -8.074219 L 13.136719 -8.074219 C 14.203125 -8.074219 14.089844 -7.613281 13.710938 -6.527344 L 12.277344 -2.511719 L 9.707031 -9.109375 L 8.199219 -9.109375 L 5.636719 -2.542969 L 4.015625 -6.96875 C 3.71875 -7.789062 3.78125 -8.074219 4.582031 -8.074219 L 5.09375 -8.074219 L 5.09375 -9.050781 L -0.214844 -9.050781 L -0.214844 -8.074219 L 0.214844 -8.074219 C 0.738281 -8.074219 0.972656 -7.800781 1.34375 -6.855469 L 3.996094 0.195312 L 5.574219 0.195312 L 8.097656 -6.40625 L 10.679688 0.195312 L 12.238281 0.195312 L 14.878906 -6.835938 C 15.136719 -7.53125 15.402344 -8.074219 15.976562 -8.074219 L 16.324219 -8.074219 L 16.324219 -9.050781 Z M 12.738281 -9.050781 "/></g></g></g><g fill="#ff1616" fill-opacity="1"><g transform="translate(178.762792, 67.557669)"><g><path d="M 3.566406 -11.703125 C 4.386719 -11.703125 5.144531 -12.328125 5.144531 -13.324219 C 5.144531 -14.195312 4.449219 -14.933594 3.566406 -14.933594 C 2.714844 -14.933594 2 -14.195312 2 -13.324219 C 2 -12.574219 2.574219 -11.703125 3.566406 -11.703125 Z M 0.5625 0 L 6.324219 0 L 6.324219 -0.972656 L 5.8125 -0.972656 C 4.96875 -0.972656 4.867188 -1.496094 4.867188 -2.222656 L 4.867188 -9.398438 L 0.53125 -8.589844 L 0.5625 -7.636719 L 1.148438 -7.726562 C 2.058594 -7.808594 2.203125 -7.410156 2.203125 -6.496094 L 2.203125 -2.222656 C 2.203125 -1.300781 2.039062 -0.972656 1.136719 -0.972656 L 0.5625 -0.972656 Z M 0.5625 0 "/></g></g></g><g fill="#ff1616" fill-opacity="1"><g transform="translate(185.391627, 67.557669)"><g><path d="M 4.558594 0.328125 C 5.511719 0.328125 7.019531 -0.0507812 7.613281 -1.566406 L 6.773438 -1.894531 C 6.4375 -1.179688 5.964844 -0.910156 5.472656 -0.910156 C 4.613281 -0.910156 4.355469 -1.628906 4.355469 -3.144531 L 4.355469 -8.074219 L 7.152344 -8.074219 L 7.152344 -9.050781 L 4.355469 -9.050781 L 4.355469 -12.378906 L 3.421875 -12.378906 L 3.421875 -11.488281 C 3.421875 -10.011719 2.335938 -9.050781 0.902344 -9.050781 L 0.203125 -9.050781 L 0.203125 -8.074219 L 1.703125 -8.074219 L 1.703125 -2.734375 C 1.703125 -0.554688 2.878906 0.328125 4.558594 0.328125 Z M 4.558594 0.328125 "/></g></g></g><g fill="#ff1616" fill-opacity="1"><g transform="translate(193.178203, 67.557669)"><g><path d="M 0.277344 0 L 5.707031 0 L 5.707031 -0.972656 L 5.207031 -0.972656 C 4.613281 -0.972656 4.4375 -1.597656 4.4375 -2.222656 L 4.4375 -5.6875 C 4.960938 -6.722656 5.738281 -7.890625 6.703125 -7.890625 C 7.675781 -7.890625 7.984375 -7.101562 7.984375 -6.046875 L 7.984375 -2.234375 C 7.984375 -1.496094 7.828125 -0.972656 7.152344 -0.972656 L 6.671875 -0.972656 L 6.671875 0 L 12.09375 0 L 12.09375 -0.972656 L 11.613281 -0.972656 C 10.894531 -0.972656 10.636719 -1.414062 10.636719 -2.222656 L 10.636719 -6.097656 C 10.636719 -8.320312 9.460938 -9.367188 7.675781 -9.367188 C 6.40625 -9.367188 5.257812 -8.445312 4.4375 -7.253906 L 4.4375 -14.246094 L 0.257812 -13.394531 L 0.277344 -12.441406 L 0.832031 -12.535156 C 1.671875 -12.617188 1.773438 -12.042969 1.773438 -11.324219 L 1.773438 -2.222656 C 1.773438 -1.464844 1.691406 -0.972656 0.75 -0.972656 L 0.277344 -0.972656 Z M 0.277344 0 "/></g></g></g><g fill="#ff1616" fill-opacity="1"><g transform="translate(205.421569, 67.557669)"><g><path d="M 3.054688 0.339844 C 3.933594 0.339844 4.664062 -0.378906 4.664062 -1.300781 C 4.664062 -2.203125 3.933594 -2.921875 3.054688 -2.921875 C 2.171875 -2.921875 1.457031 -2.203125 1.457031 -1.300781 C 1.457031 -0.378906 2.191406 0.339844 3.054688 0.339844 Z M 3.054688 0.339844 "/></g></g></g><g fill="#ff1616" fill-opacity="1"><g transform="translate(211.538129, 67.557669)"><g><path d="M 3.054688 0.339844 C 3.933594 0.339844 4.664062 -0.378906 4.664062 -1.300781 C 4.664062 -2.203125 3.933594 -2.921875 3.054688 -2.921875 C 2.171875 -2.921875 1.457031 -2.203125 1.457031 -1.300781 C 1.457031 -0.378906 2.191406 0.339844 3.054688 0.339844 Z M 3.054688 0.339844 "/></g></g></g><g fill="#ff1616" fill-opacity="1"><g transform="translate(217.654689, 67.557669)"><g><path d="M 3.054688 0.339844 C 3.933594 0.339844 4.664062 -0.378906 4.664062 -1.300781 C 4.664062 -2.203125 3.933594 -2.921875 3.054688 -2.921875 C 2.171875 -2.921875 1.457031 -2.203125 1.457031 -1.300781 C 1.457031 -0.378906 2.191406 0.339844 3.054688 0.339844 Z M 3.054688 0.339844 "/></g></g></g><g fill="#ff1616" fill-opacity="1"><g transform="translate(223.764664, 67.557669)"><g/></g></g><g fill="#016d94" fill-opacity="1"><g transform="translate(100.788213, 123.01032)"><g><path d="M 31.75 -12.191406 L 30.324219 -6.519531 C 29.503906 -3.945312 28.460938 -2.820312 23.941406 -2.820312 L 17.640625 -2.820312 C 14.355469 -2.820312 14.21875 -4.65625 14.21875 -7.285156 L 14.21875 -17.941406 L 19.832031 -17.941406 C 21.695312 -17.941406 23.3125 -17.640625 23.3125 -15.175781 L 23.3125 -12.957031 L 25.941406 -12.957031 L 25.941406 -25.53125 L 23.3125 -25.53125 L 23.3125 -23.09375 C 23.3125 -21.039062 21.476562 -20.765625 19.75 -20.765625 L 14.21875 -20.765625 L 14.21875 -34.214844 L 23.75 -34.214844 C 26.296875 -34.214844 27.75 -33.996094 28.929688 -30.929688 L 29.832031 -27.421875 L 32.40625 -27.449219 L 31.886719 -37.035156 L 1.371094 -37.035156 L 1.371094 -34.433594 L 2.792969 -34.433594 C 6 -34.433594 6.492188 -33.121094 6.492188 -30.515625 L 6.492188 -6.519531 C 6.492188 -4.21875 6.027344 -2.601562 3.316406 -2.601562 L 1.371094 -2.601562 L 1.371094 0 L 33.914062 0 L 34.324219 -12.164062 Z M 31.75 -12.191406 "/></g></g></g><g fill="#016d94" fill-opacity="1"><g transform="translate(137.547908, 123.01032)"><g><path d="M 9.230469 0 L 28.023438 0 L 28.023438 -2.601562 L 26.269531 -2.601562 C 22.546875 -2.601562 22.492188 -4.492188 22.492188 -6.519531 L 22.492188 -34.214844 L 27.449219 -34.214844 C 30.351562 -34.214844 32.296875 -33.859375 33.53125 -28.738281 L 33.75 -26.683594 L 36.351562 -26.710938 L 36.214844 -37.035156 L 0.984375 -37.035156 L 0.847656 -26.710938 L 3.453125 -26.683594 L 3.589844 -28.652344 C 4.109375 -34.078125 7.394531 -34.214844 9.644531 -34.214844 L 14.765625 -34.214844 L 14.765625 -6.519531 C 14.765625 -4.4375 14.519531 -2.601562 10.929688 -2.601562 L 9.230469 -2.601562 Z M 9.230469 0 "/></g></g></g><g fill="#016d94" fill-opacity="1"><g transform="translate(174.74587, 123.01032)"><g><path d="M 21.148438 0.738281 C 34.214844 0.738281 40.433594 -8.957031 40.433594 -18.4375 C 40.433594 -27.285156 34.84375 -37.777344 20.957031 -37.777344 C 7.972656 -37.777344 1.78125 -27.640625 1.78125 -18.65625 C 1.78125 -7.5625 9.09375 0.738281 21.148438 0.738281 Z M 20.957031 -2.300781 C 12.628906 -2.300781 10.792969 -11.667969 10.792969 -18.875 C 10.792969 -27.804688 13.585938 -34.734375 21.039062 -34.734375 C 27.257812 -34.734375 31.339844 -30.160156 31.339844 -18.492188 C 31.339844 -7.257812 27.75 -2.300781 20.957031 -2.300781 Z M 20.957031 -2.300781 "/></g></g></g><g fill="#016d94" fill-opacity="1"><g transform="translate(216.983909, 123.01032)"><g><path d="M 0.929688 0 L 16.410156 0 L 16.410156 -2.601562 L 14.21875 -2.601562 C 11.257812 -2.601562 10.65625 -4.4375 12.765625 -6.957031 L 19.914062 -15.230469 L 26.378906 -7.066406 C 28.625 -4.027344 28.078125 -2.601562 24.902344 -2.601562 L 22.683594 -2.601562 L 22.683594 0 L 43.417969 0 L 43.417969 -2.601562 L 41.859375 -2.601562 C 38.925781 -2.601562 37.339844 -4.875 34.898438 -8.164062 L 25.203125 -20.792969 L 32.898438 -29.613281 C 35.285156 -32.378906 36.707031 -34.433594 39.804688 -34.433594 L 41.335938 -34.433594 L 41.335938 -37.035156 L 26.984375 -37.035156 L 26.984375 -34.433594 L 28.929688 -34.433594 C 31.476562 -34.433594 32.023438 -32.929688 29.859375 -30.433594 L 23.394531 -23.011719 L 17.257812 -30.789062 C 15.585938 -33.09375 15.886719 -34.433594 18.082031 -34.433594 L 19.996094 -34.433594 L 19.996094 -37.035156 L 0.738281 -37.035156 L 0.738281 -34.433594 L 2.519531 -34.433594 C 5.066406 -34.433594 6 -33.230469 8.902344 -29.339844 L 18.164062 -17.53125 L 8.765625 -6.820312 C 6.683594 -4.382812 4.710938 -2.601562 2.164062 -2.601562 L 0.929688 -2.601562 Z M 0.929688 0 "/></g></g></g><g fill="#016d94" fill-opacity="1"><g transform="translate(260.701101, 123.01032)"><g><path d="M 3.5625 -8.164062 L 19.777344 -8.164062 L 19.777344 -14.164062 L 3.5625 -14.164062 Z M 3.5625 -8.164062 "/></g></g></g><g fill="#016d94" fill-opacity="1"><g transform="translate(284.03885, 123.01032)"><g><path d="M 10.355469 0.738281 C 18.300781 0.738281 26.105469 -6.109375 26.105469 -21.53125 C 26.105469 -33.394531 19.476562 -37.667969 13.695312 -37.667969 C 8.082031 -37.667969 1.972656 -33.476562 1.972656 -25.148438 C 1.972656 -16.109375 8.492188 -13.421875 12.792969 -13.421875 C 15.722656 -13.421875 17.53125 -14.683594 18.601562 -16.300781 C 18.355469 -10.792969 17.339844 -2.082031 12.109375 -2.082031 C 10.082031 -2.082031 8.984375 -3.175781 8.21875 -4.246094 C 7.09375 -5.863281 6.355469 -6.328125 5.285156 -6.273438 C 3.753906 -6.21875 2.792969 -4.792969 2.875 -3.5625 C 3.316406 -1.125 6.164062 0.738281 10.355469 0.738281 Z M 14.21875 -16.109375 C 10.300781 -16.109375 9.339844 -20.21875 9.339844 -26.324219 C 9.339844 -31.503906 10.355469 -34.980469 13.777344 -34.980469 C 17.257812 -34.980469 18.738281 -31.585938 18.957031 -25.3125 C 18.738281 -20.464844 18.136719 -16.109375 14.21875 -16.109375 Z M 14.21875 -16.109375 "/></g></g></g><g fill="#016d94" fill-opacity="1"><g transform="translate(312.334501, 123.01032)"><g><path d="M 14.109375 0.738281 C 20.957031 0.738281 26.296875 -4.957031 26.296875 -18.519531 C 26.296875 -33.476562 19.558594 -37.667969 14.109375 -37.667969 C 7.671875 -37.667969 2.027344 -32.050781 2.027344 -18.765625 C 2.027344 -1.945312 10.109375 0.738281 14.109375 0.738281 Z M 14.300781 -1.945312 C 10.355469 -1.945312 9.367188 -7.480469 9.367188 -18.683594 C 9.367188 -28.105469 10.191406 -34.980469 14.082031 -34.980469 C 17.941406 -34.980469 18.929688 -29.886719 18.929688 -17.558594 C 18.929688 -6.628906 17.859375 -1.945312 14.300781 -1.945312 Z M 14.300781 -1.945312 "/></g></g></g><g fill="#000000" fill-opacity="1"><g transform="translate(101.950363, 146.479772)"><g><path d="M 11.597656 -4.371094 L 11.136719 -1.941406 C 10.921875 -1.175781 10.578125 -0.832031 9.324219 -0.832031 L 5.582031 -0.832031 C 4.632812 -0.832031 4.535156 -1.363281 4.535156 -2.144531 L 4.535156 -6.515625 L 7.464844 -6.515625 C 8.042969 -6.515625 8.523438 -6.378906 8.523438 -5.632812 L 8.523438 -4.632812 L 9.316406 -4.632812 L 9.316406 -9.140625 L 8.523438 -9.140625 L 8.523438 -8.121094 C 8.523438 -7.484375 7.992188 -7.347656 7.445312 -7.347656 L 4.535156 -7.347656 L 4.535156 -12.410156 L 9.160156 -12.410156 C 9.921875 -12.410156 10.355469 -12.292969 10.660156 -11.402344 L 10.933594 -9.804688 L 11.695312 -9.816406 L 11.5 -13.246094 L 0.539062 -13.246094 L 0.539062 -12.460938 L 1.332031 -12.460938 C 2.261719 -12.460938 2.449219 -12.070312 2.449219 -11.296875 L 2.449219 -1.949219 C 2.449219 -1.253906 2.273438 -0.773438 1.46875 -0.773438 L 0.539062 -0.773438 L 0.539062 0 L 12.136719 0 L 12.363281 -4.347656 Z M 11.597656 -4.371094 "/></g></g></g><g fill="#000000" fill-opacity="1"><g transform="translate(115.321194, 146.479772)"><g><path d="M 4.632812 0.273438 C 5.582031 0.273438 6.835938 -0.0976562 7.367188 -1.363281 L 6.710938 -1.644531 C 6.367188 -0.960938 5.859375 -0.675781 5.25 -0.675781 C 4.222656 -0.675781 3.800781 -1.429688 3.800781 -2.949219 L 3.800781 -7.691406 L 6.769531 -7.691406 L 6.769531 -8.472656 L 3.800781 -8.472656 L 3.800781 -11.5 L 3.054688 -11.5 L 3.054688 -10.304688 C 3.054688 -9.1875 2.253906 -8.472656 1.175781 -8.472656 L 0.175781 -8.472656 L 0.175781 -7.691406 L 1.882812 -7.691406 L 1.882812 -2.664062 C 1.882812 -0.636719 2.988281 0.273438 4.632812 0.273438 Z M 4.632812 0.273438 "/></g></g></g><g fill="#000000" fill-opacity="1"><g transform="translate(122.902896, 146.479772)"><g><path d="M 5.113281 0.273438 C 6.886719 0.273438 9.582031 -0.792969 9.582031 -4.25 C 9.582031 -7.640625 6.867188 -8.75 5.105469 -8.75 C 3.164062 -8.75 0.65625 -7.515625 0.65625 -4.25 C 0.65625 -0.421875 3.820312 0.273438 5.113281 0.273438 Z M 5.132812 -0.519531 C 3.78125 -0.519531 2.695312 -1.929688 2.695312 -4.308594 C 2.695312 -6.320312 3.546875 -7.945312 5.113281 -7.945312 C 6.691406 -7.945312 7.542969 -6.359375 7.542969 -4.242188 C 7.542969 -1.910156 6.4375 -0.519531 5.132812 -0.519531 Z M 5.132812 -0.519531 "/></g></g></g><g fill="#000000" fill-opacity="1"><g transform="translate(133.139173, 146.479772)"><g><path d="M 0.605469 0 L 5.652344 0 L 5.652344 -0.773438 L 5.046875 -0.773438 C 4.269531 -0.773438 4.113281 -1.097656 4.113281 -1.800781 L 4.113281 -3.671875 C 4.113281 -5.203125 4.671875 -7.433594 6.230469 -7.433594 C 6.757812 -7.433594 7.113281 -7.152344 7.316406 -6.816406 C 7.535156 -6.496094 7.730469 -6.347656 8.0625 -6.359375 C 8.648438 -6.378906 8.847656 -6.917969 8.796875 -7.316406 C 8.640625 -8.003906 8.132812 -8.75 7.054688 -8.75 C 5.542969 -8.75 4.644531 -7.632812 4.035156 -6.320312 L 3.871094 -8.789062 L 0.539062 -7.992188 L 0.597656 -7.230469 L 1.390625 -7.386719 C 2.019531 -7.464844 2.175781 -7.054688 2.175781 -6.40625 L 2.175781 -1.800781 C 2.175781 -1.195312 2.066406 -0.773438 1.390625 -0.773438 L 0.605469 -0.773438 Z M 0.605469 0 "/></g></g></g><g fill="#000000" fill-opacity="1"><g transform="translate(141.94531, 146.479772)"><g><path d="M 3.234375 -11.246094 C 3.878906 -11.246094 4.46875 -11.726562 4.46875 -12.511719 C 4.46875 -13.195312 3.917969 -13.773438 3.234375 -13.773438 C 2.558594 -13.773438 2 -13.195312 2 -12.511719 C 2 -11.933594 2.449219 -11.246094 3.234375 -11.246094 Z M 0.578125 0 L 5.644531 0 L 5.644531 -0.773438 L 4.988281 -0.773438 C 4.308594 -0.773438 4.171875 -1.195312 4.171875 -1.800781 L 4.171875 -8.789062 L 0.519531 -8.0625 L 0.578125 -7.296875 L 1.332031 -7.453125 C 2.066406 -7.542969 2.242188 -7.210938 2.242188 -6.464844 L 2.242188 -1.800781 C 2.242188 -1.066406 2.066406 -0.773438 1.34375 -0.773438 L 0.578125 -0.773438 Z M 0.578125 0 "/></g></g></g><g fill="#000000" fill-opacity="1"><g transform="translate(147.920553, 146.479772)"><g><path d="M 5.066406 0.273438 C 7.210938 0.273438 8.21875 -0.910156 8.808594 -2.234375 L 8.101562 -2.558594 C 7.769531 -1.695312 6.945312 -0.636719 5.425781 -0.636719 C 3.703125 -0.636719 2.664062 -2.019531 2.664062 -4.515625 C 2.664062 -5.9375 3.320312 -7.964844 5.183594 -7.964844 C 6.152344 -7.964844 6.691406 -7.445312 7.003906 -6.789062 C 7.09375 -6.425781 7.269531 -5.847656 7.886719 -5.867188 C 8.375 -5.878906 8.628906 -6.300781 8.589844 -6.777344 C 8.316406 -8.199219 6.652344 -8.75 5.269531 -8.75 C 2.683594 -8.75 0.628906 -6.886719 0.628906 -4.144531 C 0.628906 -1.5 2.5 0.273438 5.066406 0.273438 Z M 5.066406 0.273438 "/></g></g></g><g fill="#000000" fill-opacity="1"><g transform="translate(157.265441, 146.479772)"><g><path d="M 5.113281 0.273438 C 6.886719 0.273438 9.582031 -0.792969 9.582031 -4.25 C 9.582031 -7.640625 6.867188 -8.75 5.105469 -8.75 C 3.164062 -8.75 0.65625 -7.515625 0.65625 -4.25 C 0.65625 -0.421875 3.820312 0.273438 5.113281 0.273438 Z M 5.132812 -0.519531 C 3.78125 -0.519531 2.695312 -1.929688 2.695312 -4.308594 C 2.695312 -6.320312 3.546875 -7.945312 5.113281 -7.945312 C 6.691406 -7.945312 7.542969 -6.359375 7.542969 -4.242188 C 7.542969 -1.910156 6.4375 -0.519531 5.132812 -0.519531 Z M 5.132812 -0.519531 "/></g></g></g><g fill="#000000" fill-opacity="1"><g transform="translate(167.501718, 146.479772)"><g><path d="M 0.382812 0 L 3.996094 0 L 3.996094 -0.773438 L 3.390625 -0.773438 C 2.695312 -0.773438 2.8125 -1.144531 3.28125 -1.664062 L 5.09375 -3.496094 L 6.835938 -1.578125 C 7.230469 -1.097656 7.210938 -0.773438 6.523438 -0.773438 L 5.898438 -0.773438 L 5.898438 0 L 10.699219 0 L 10.699219 -0.773438 L 10.375 -0.773438 C 10.0625 -0.773438 9.472656 -1.292969 8.828125 -2.078125 L 6.367188 -4.683594 L 8.503906 -6.808594 C 8.953125 -7.277344 9.425781 -7.691406 9.84375 -7.691406 L 10.238281 -7.691406 L 10.238281 -8.472656 L 6.9375 -8.472656 L 6.9375 -7.691406 L 7.316406 -7.691406 C 7.972656 -7.691406 7.953125 -7.328125 7.496094 -6.835938 L 5.90625 -5.210938 L 4.359375 -6.878906 C 3.96875 -7.367188 3.9375 -7.691406 4.546875 -7.691406 L 5.171875 -7.691406 L 5.171875 -8.472656 L 0.34375 -8.472656 L 0.34375 -7.691406 L 0.773438 -7.691406 C 1.203125 -7.691406 1.742188 -7.101562 2.058594 -6.71875 L 4.585938 -4.027344 L 2.15625 -1.578125 C 1.761719 -1.183594 1.273438 -0.773438 0.726562 -0.773438 L 0.382812 -0.773438 Z M 0.382812 0 "/></g></g></g><g fill="#000000" fill-opacity="1"><g transform="translate(178.413884, 146.479772)"><g><path d="M 3.234375 -11.246094 C 3.878906 -11.246094 4.46875 -11.726562 4.46875 -12.511719 C 4.46875 -13.195312 3.917969 -13.773438 3.234375 -13.773438 C 2.558594 -13.773438 2 -13.195312 2 -12.511719 C 2 -11.933594 2.449219 -11.246094 3.234375 -11.246094 Z M 0.578125 0 L 5.644531 0 L 5.644531 -0.773438 L 4.988281 -0.773438 C 4.308594 -0.773438 4.171875 -1.195312 4.171875 -1.800781 L 4.171875 -8.789062 L 0.519531 -8.0625 L 0.578125 -7.296875 L 1.332031 -7.453125 C 2.066406 -7.542969 2.242188 -7.210938 2.242188 -6.464844 L 2.242188 -1.800781 C 2.242188 -1.066406 2.066406 -0.773438 1.34375 -0.773438 L 0.578125 -0.773438 Z M 0.578125 0 "/></g></g></g><g fill="#000000" fill-opacity="1"><g transform="translate(184.389127, 146.479772)"><g><path d="M 6.230469 0.234375 C 8.386719 0.234375 10.335938 -1.546875 10.335938 -4.269531 C 10.335938 -6.90625 8.472656 -8.75 6.269531 -8.75 C 4.964844 -8.75 4.015625 -8.160156 3.417969 -7.59375 L 3.417969 -13.597656 L -0.148438 -12.890625 L -0.0976562 -12.117188 L 0.648438 -12.285156 C 1.34375 -12.371094 1.488281 -11.941406 1.488281 -11.296875 L 1.488281 0.117188 L 2.125 0.117188 L 3.085938 -1.175781 C 3.929688 -0.292969 5.046875 0.234375 6.230469 0.234375 Z M 5.710938 -0.726562 C 4.683594 -0.726562 3.890625 -1.390625 3.417969 -2.039062 L 3.417969 -6.542969 C 3.871094 -7.132812 4.683594 -7.777344 5.742188 -7.777344 C 7.394531 -7.777344 8.308594 -6.042969 8.308594 -4.242188 C 8.308594 -2.753906 7.535156 -0.726562 5.710938 -0.726562 Z M 5.710938 -0.726562 "/></g></g></g><g fill="#000000" fill-opacity="1"><g transform="translate(195.36986, 146.479772)"><g/></g></g><g fill="#000000" fill-opacity="1"><g transform="translate(200.277396, 146.479772)"><g><path d="M 4.015625 0.246094 C 6.828125 0.246094 9.257812 -2.273438 9.257812 -7.71875 C 9.257812 -11.765625 7.160156 -13.460938 4.90625 -13.460938 C 2.820312 -13.460938 0.832031 -11.902344 0.832031 -9.0625 C 0.832031 -5.984375 2.910156 -4.859375 4.730469 -4.859375 C 5.996094 -4.859375 6.808594 -5.464844 7.230469 -6.4375 C 7.160156 -3.9375 6.691406 -0.585938 4.457031 -0.585938 C 3.59375 -0.585938 3.035156 -1 2.636719 -1.507812 C 2.320312 -1.96875 2.097656 -2.097656 1.800781 -2.058594 C 1.371094 -2.027344 1.136719 -1.625 1.183594 -1.265625 C 1.519531 -0.371094 2.566406 0.246094 4.015625 0.246094 Z M 5.09375 -5.664062 C 3.429688 -5.664062 2.820312 -7.101562 2.820312 -9.367188 C 2.820312 -11.335938 3.46875 -12.667969 4.925781 -12.667969 C 6.417969 -12.667969 7.140625 -11.414062 7.289062 -9.03125 C 7.140625 -7.132812 6.640625 -5.664062 5.09375 -5.664062 Z M 5.09375 -5.664062 "/></g></g></g><g fill="#000000" fill-opacity="1"><g transform="translate(210.484287, 146.479772)"><g><path d="M 5.105469 0.246094 C 7.542969 0.246094 9.296875 -1.921875 9.296875 -6.621094 C 9.296875 -11.675781 7.191406 -13.460938 5.105469 -13.460938 C 2.753906 -13.460938 0.921875 -11.316406 0.921875 -6.691406 C 0.921875 -1.144531 3.378906 0.246094 5.105469 0.246094 Z M 5.144531 -0.558594 C 3.515625 -0.558594 2.910156 -2.625 2.910156 -6.660156 C 2.910156 -10.246094 3.46875 -12.667969 5.09375 -12.667969 C 6.691406 -12.667969 7.308594 -10.699219 7.308594 -6.378906 C 7.308594 -2.410156 6.671875 -0.558594 5.144531 -0.558594 Z M 5.144531 -0.558594 "/></g></g></g></svg>